Coordinates
version=1
nRows=34
nColumns=38
inDegrees=no

Units are S.I. units (second, meters, Newtons, ...)
If the header above contains a line with 'inDegrees', this indicates whether rotational values are in degrees (yes) or radians (no).

endheader
time	pelvis_tilt	pelvis_list	pelvis_rotation	pelvis_tx	pelvis_ty	pelvis_tz	hip_flexion_r	hip_adduction_r	hip_rotation_r	knee_angle_r	ankle_angle_r	subtalar_angle_r	mtp_angle_r	hip_flexion_l	hip_adduction_l	hip_rotation_l	knee_angle_l	ankle_angle_l	subtalar_angle_l	mtp_angle_l	lumbar_extension	lumbar_bending	lumbar_rotation	arm_flex_r	arm_add_r	arm_rot_r	elbow_flex_r	pro_sup_r	wrist_flex_r	wrist_dev_r	arm_flex_l	arm_add_l	arm_rot_l	elbow_flex_l	pro_sup_l	wrist_flex_l	wrist_dev_l
1.14	-0.0350396	1.35147	-1.57729	0.698401	0.807416	1.02882	0.302463	0.0452918	-0.012405	0.776879	-0.154403	0	0	-0.298174	0.00915846	-0.427265	0.347515	-0.167695	0	0	-0.377718	0.197397	0.21831	-0.0975647	-0.436819	-0.0852442	1.69421	0.679433	0	0	0.370363	-0.474284	0.391693	0.998967	0.596354	0	0
1.15	-0.0306146	1.3556	-1.58217	0.698463	0.797737	1.02752	0.304381	0.0422545	-0.0255273	0.725518	-0.147579	0	0	-0.304946	0.0110477	-0.428243	0.345916	-0.163549	0	0	-0.372876	0.197707	0.218417	-0.0998006	-0.436519	-0.0869085	1.69487	0.679247	0	0	0.369134	-0.474421	0.391926	1.00033	0.597477	0	0
1.16	-0.0253042	1.35938	-1.58788	0.698453	0.787989	1.02614	0.305066	0.0391745	-0.0407696	0.673777	-0.141095	0	0	-0.312012	0.012951	-0.429443	0.344864	-0.159111	0	0	-0.368467	0.19791	0.218709	-0.102126	-0.435876	-0.0889393	1.69555	0.679334	0	0	0.368013	-0.474362	0.392126	1.0015	0.598446	0	0
1.17	-0.0206296	1.36295	-1.59298	0.698355	0.778146	1.02465	0.304619	0.0364665	-0.0577557	0.621995	-0.135308	0	0	-0.319155	0.0145794	-0.431105	0.3448	-0.154646	0	0	-0.364206	0.198335	0.219348	-0.104843	-0.435109	-0.091278	1.69643	0.679594	0	0	0.36713	-0.474103	0.392691	1.00232	0.599125	0	0
1.18	-0.0158678	1.36556	-1.59812	0.69824	0.76821	1.02321	0.301759	0.0338784	-0.0765082	0.569437	-0.130818	0	0	-0.327583	0.0161623	-0.432802	0.344462	-0.150263	0	0	-0.361009	0.198938	0.220572	-0.108185	-0.434288	-0.0945175	1.69775	0.680537	0	0	0.367021	-0.472999	0.393685	1.00189	0.599105	0	0
1.19	-0.0101986	1.36792	-1.6045	0.698038	0.758141	1.02176	0.298062	0.03169	-0.0965316	0.518964	-0.127955	0	0	-0.336275	0.0178729	-0.434851	0.34446	-0.146599	0	0	-0.357947	0.199383	0.222192	-0.111601	-0.433321	-0.0977458	1.69886	0.681535	0	0	0.367038	-0.471351	0.394522	1.00049	0.598419	0	0
1.2	-0.00542406	1.36943	-1.60984	0.697742	0.747965	1.0203	0.292627	0.0303123	-0.117526	0.470875	-0.126079	0	0	-0.345723	0.0191556	-0.436494	0.344847	-0.14315	0	0	-0.355657	0.200092	0.22414	-0.115148	-0.432219	-0.101247	1.69993	0.682471	0	0	0.36771	-0.4693	0.395888	0.998138	0.598055	0	0
1.21	-0.00283212	1.36908	-1.61239	0.697388	0.737717	1.01895	0.284153	0.0299287	-0.138835	0.425326	-0.126104	0	0	-0.356976	0.019635	-0.437739	0.345727	-0.139651	0	0	-0.355617	0.201353	0.226622	-0.119376	-0.429478	-0.10727	1.70171	0.690141	0	0	0.369832	-0.46679	0.398449	0.994921	0.601181	0	0
1.22	0.00339788	1.37101	-1.61871	0.696894	0.7273	1.01732	0.280882	0.0291604	-0.157507	0.393276	-0.122475	0	0	-0.364865	0.0203435	-0.439878	0.3493	-0.136467	0	0	-0.351948	0.201858	0.227148	-0.121319	-0.42849	-0.108427	1.70078	0.688882	0	0	0.369874	-0.464978	0.399302	0.991261	0.601738	0	0
1.23	0.00285788	1.36936	-1.61711	0.696483	0.716899	1.016	0.272409	0.0300331	-0.173831	0.364484	-0.120457	0	0	-0.375784	0.0188269	-0.442958	0.355175	-0.131134	0	0	-0.352436	0.204458	0.226604	-0.121836	-0.428764	-0.108589	1.70043	0.682777	0	0	0.369768	-0.462375	0.398109	0.987766	0.598578	0	0
1.24	0.00344637	1.36904	-1.61672	0.695996	0.706398	1.01454	0.268677	0.0304976	-0.183372	0.352977	-0.116842	0	0	-0.384233	0.0171271	-0.445825	0.363273	-0.127087	0	0	-0.35117	0.206927	0.225617	-0.121764	-0.429132	-0.107705	1.69908	0.680723	0	0	0.368977	-0.460028	0.396606	0.983992	0.597369	0	0
1.25	0.00163424	1.36806	-1.61359	0.695444	0.695795	1.01313	0.265547	0.0314061	-0.186152	0.354141	-0.113145	0	0	-0.392353	0.0141255	-0.448615	0.373726	-0.122922	0	0	-0.350592	0.210149	0.224006	-0.120934	-0.430196	-0.105682	1.69759	0.677729	0	0	0.367743	-0.458333	0.395267	0.980608	0.597104	0	0
1.26	-0.00157757	1.36609	-1.60886	0.694762	0.685122	1.01176	0.262336	0.0326337	-0.183147	0.366779	-0.110814	0	0	-0.400504	0.0101449	-0.449887	0.386137	-0.119257	0	0	-0.351178	0.213498	0.222579	-0.120034	-0.431337	-0.103849	1.69633	0.675012	0	0	0.366704	-0.456889	0.394251	0.97807	0.595414	0	0
1.27	-0.00508267	1.36313	-1.60358	0.693968	0.674359	1.0104	0.258187	0.0343386	-0.176114	0.388401	-0.11072	0	0	-0.4087	0.0055152	-0.448754	0.400609	-0.115941	0	0	-0.352933	0.216751	0.221441	-0.119524	-0.432392	-0.10266	1.69574	0.67304	0	0	0.366025	-0.456315	0.394533	0.976457	0.594495	0	0
1.28	-0.00847703	1.35986	-1.59852	0.693043	0.663363	1.00899	0.253746	0.0366803	-0.167084	0.417938	-0.113289	0	0	-0.416152	0.000414571	-0.446333	0.418215	-0.112018	0	0	-0.35509	0.21984	0.220667	-0.119989	-0.433079	-0.102044	1.69617	0.67113	0	0	0.364996	-0.456946	0.396051	0.976243	0.594632	0	0
1.29	-0.0150123	1.35469	-1.59014	0.692047	0.652292	1.00777	0.24697	0.0400334	-0.158899	0.447062	-0.119843	0	0	-0.424599	-0.00548593	-0.441392	0.438119	-0.109223	0	0	-0.359489	0.22356	0.220573	-0.121152	-0.433765	-0.10259	1.69762	0.670096	0	0	0.364415	-0.457455	0.398149	0.976705	0.594482	0	0
1.3	-0.0271311	1.34857	-1.57656	0.690986	0.641295	1.0069	0.241395	0.0434652	-0.154336	0.470749	-0.131459	0	0	-0.43227	-0.0128758	-0.435309	0.461952	-0.107009	0	0	-0.365811	0.228696	0.221333	-0.122162	-0.434794	-0.103656	1.69965	0.670048	0	0	0.363521	-0.457577	0.399603	0.977177	0.594125	0	0
1.31	-0.0459032	1.34178	-1.55738	0.689864	0.630463	1.00655	0.236678	0.0467282	-0.15229	0.484247	-0.147348	0	0	-0.438155	-0.0218054	-0.428767	0.490809	-0.105992	0	0	-0.374155	0.235607	0.22352	-0.122671	-0.436224	-0.105031	1.70168	0.672295	0	0	0.362003	-0.456542	0.399667	0.977601	0.59422	0	0
1.32	-0.069487	1.33413	-1.53456	0.688642	0.619759	1.00683	0.229518	0.0516044	-0.15227	0.491303	-0.180686	0	0	-0.441811	-0.0325702	-0.423048	0.526022	-0.10668	0	0	-0.384651	0.243915	0.227561	-0.123215	-0.439263	-0.106097	1.70421	0.667717	0	0	0.360438	-0.454566	0.39949	0.977831	0.59339	0	0
1.33	-0.0885058	1.32854	-1.51785	0.687174	0.609029	1.00735	0.223511	0.0563879	-0.150469	0.502887	-0.2108	0	0	-0.439896	-0.0428155	-0.417416	0.56776	-0.109875	0	0	-0.392896	0.250695	0.231913	-0.123152	-0.440436	-0.107027	1.7049	0.670173	0	0	0.357689	-0.452667	0.398264	0.977412	0.594047	0	0
1.34	-0.100429	1.32549	-1.50958	0.685471	0.598243	1.00785	0.220326	0.0597657	-0.144567	0.520659	-0.232308	0	0	-0.431772	-0.0516992	-0.41106	0.616155	-0.11572	0	0	-0.398256	0.254861	0.23655	-0.123224	-0.440536	-0.107863	1.70494	0.672532	0	0	0.354246	-0.451674	0.397552	0.977257	0.594838	0	0
1.35	-0.104288	1.32302	-1.50914	0.683638	0.587442	1.00831	0.218017	0.0614715	-0.134967	0.541503	-0.239398	0	0	-0.41912	-0.0590766	-0.402128	0.670352	-0.124122	0	0	-0.402573	0.256355	0.239527	-0.122552	-0.44072	-0.106901	1.70475	0.670657	0	0	0.349801	-0.4525	0.396258	0.978973	0.59554	0	0
1.36	-0.10402	1.32499	-1.51196	0.68163	0.576514	1.00836	0.2217	0.0630806	-0.120436	0.566449	-0.242008	0	0	-0.396865	-0.0670088	-0.391419	0.733188	-0.136733	0	0	-0.40179	0.255529	0.24475	-0.127435	-0.438061	-0.111936	1.7065	0.673978	0	0	0.34878	-0.453597	0.401671	0.979719	0.592438	0	0
1.37	-0.106426	1.32333	-1.50877	0.679718	0.565775	1.00875	0.219072	0.0668701	-0.109579	0.586645	-0.237505	0	0	-0.374743	-0.0775647	-0.376239	0.799077	-0.153229	0	0	-0.404617	0.256142	0.247132	-0.131258	-0.436648	-0.115477	1.70897	0.673122	0	0	0.348184	-0.455411	0.405818	0.982021	0.589579	0	0
1.38	-0.11639	1.31966	-1.49529	0.677938	0.555192	1.00939	0.212004	0.0732885	-0.104364	0.600851	-0.231725	0	0	-0.351432	-0.0915182	-0.358367	0.8669	-0.173265	0	0	-0.409173	0.259568	0.248127	-0.13504	-0.435812	-0.11921	1.71218	0.67216	0	0	0.348613	-0.456875	0.409823	0.984314	0.586946	0	0
1.39	-0.132838	1.31557	-1.4739	0.676308	0.544753	1.01014	0.202196	0.0814103	-0.103065	0.60789	-0.228481	0	0	-0.326333	-0.107409	-0.338905	0.934723	-0.192903	0	0	-0.413615	0.265354	0.248241	-0.138179	-0.435648	-0.122405	1.71533	0.671254	0	0	0.349353	-0.457889	0.413094	0.986311	0.585807	0	0
1.4	-0.151951	1.3127	-1.44979	0.674743	0.534476	1.01077	0.192085	0.0903206	-0.101839	0.610645	-0.226727	0	0	-0.298781	-0.12283	-0.318264	1.00144	-0.209235	0	0	-0.416221	0.271854	0.24777	-0.14001	-0.435791	-0.12433	1.71752	0.672162	0	0	0.349617	-0.458653	0.414905	0.988088	0.58645	0	0
1.41	-0.16976	1.31131	-1.42795	0.673119	0.524358	1.0112	0.183102	0.099303	-0.098826	0.613818	-0.217004	0	0	-0.269545	-0.136496	-0.298574	1.06611	-0.22508	0	0	-0.416787	0.277477	0.246649	-0.139505	-0.440393	-0.120558	1.71842	0.651792	0	0	0.349094	-0.460013	0.415734	0.989987	0.584947	0	0
1.42	-0.180996	1.30875	-1.4138	0.671425	0.514445	1.01175	0.172245	0.106806	-0.0952088	0.617565	-0.208237	0	0	-0.242554	-0.147108	-0.280834	1.12575	-0.237865	0	0	-0.419303	0.280776	0.246311	-0.138251	-0.442108	-0.118702	1.71867	0.647929	0	0	0.349093	-0.461226	0.415327	0.992118	0.584217	0	0
1.43	-0.184828	1.30575	-1.40823	0.669657	0.504648	1.01241	0.160223	0.112319	-0.0911994	0.62111	-0.198517	0	0	-0.217315	-0.154393	-0.264931	1.17945	-0.246078	0	0	-0.422706	0.281447	0.24681	-0.136496	-0.443526	-0.116781	1.71837	0.644451	0	0	0.349875	-0.461973	0.414515	0.993511	0.583204	0	0
1.44	-0.182768	1.3026	-1.40987	0.667872	0.49495	1.01317	0.147518	0.115926	-0.0871276	0.623726	-0.189111	0	0	-0.194027	-0.158306	-0.25025	1.22641	-0.24359	0	0	-0.426604	0.280061	0.248333	-0.134494	-0.444795	-0.114952	1.71784	0.64162	0	0	0.351538	-0.462203	0.413993	0.993787	0.582751	0	0
1.45	-0.176886	1.29938	-1.41674	0.666126	0.485338	1.01406	0.134831	0.117854	-0.0835796	0.625739	-0.180783	0	0	-0.17279	-0.159085	-0.237158	1.2665	-0.229348	0	0	-0.430783	0.277338	0.250961	-0.132187	-0.446177	-0.11313	1.7171	0.639736	0	0	0.353929	-0.461792	0.413888	0.992834	0.583039	0	0
1.46	-0.1688	1.29589	-1.4268	0.664433	0.475791	1.01505	0.121784	0.118795	-0.0807268	0.626853	-0.173155	0	0	-0.153522	-0.157459	-0.22623	1.29994	-0.207743	0	0	-0.435327	0.273864	0.254242	-0.129472	-0.447625	-0.11121	1.71605	0.638687	0	0	0.356909	-0.460994	0.414364	0.990796	0.583494	0	0
1.47	-0.1591	1.29228	-1.4388	0.662812	0.466262	1.01613	0.107818	0.119205	-0.0787011	0.626275	-0.165801	0	0	-0.13547	-0.153894	-0.217089	1.32741	-0.184434	0	0	-0.439781	0.269718	0.257534	-0.126642	-0.448988	-0.109228	1.71453	0.638473	0	0	0.360131	-0.460029	0.415264	0.988075	0.583369	0	0
